<svg xmlns="http://www.w3.org/2000/svg" width="1200" height="630" viewBox="0 0 1200 630" role="img" aria-label="Brandon Temple portfolio preview">
  <defs>
    <linearGradient id="background" x1="0" y1="0" x2="1200" y2="630" gradientUnits="userSpaceOnUse">
      <stop stop-color="#101827"/>
      <stop offset="0.48" stop-color="#09070d"/>
      <stop offset="1" stop-color="#123f4f"/>
    </linearGradient>
    <radialGradient id="glowA" cx="0" cy="0" r="1" gradientUnits="userSpaceOnUse" gradientTransform="translate(1020 95) rotate(128) scale(430 460)">
      <stop stop-color="#7dc7ff" stop-opacity="0.38"/>
      <stop offset="1" stop-color="#7dc7ff" stop-opacity="0"/>
    </radialGradient>
    <radialGradient id="glowB" cx="0" cy="0" r="1" gradientUnits="userSpaceOnUse" gradientTransform="translate(130 540) rotate(-24) scale(410 270)">
      <stop stop-color="#cf5464" stop-opacity="0.24"/>
      <stop offset="1" stop-color="#cf5464" stop-opacity="0"/>
    </radialGradient>
    <linearGradient id="panel" x1="86" y1="74" x2="1114" y2="556" gradientUnits="userSpaceOnUse">
      <stop stop-color="#ffffff" stop-opacity="0.13"/>
      <stop offset="1" stop-color="#ffffff" stop-opacity="0.05"/>
    </linearGradient>
    <clipPath id="profilePhotoClip">
      <rect x="112" y="122" width="250" height="250" rx="42"/>
    </clipPath>
  </defs>
  <rect width="1200" height="630" fill="url(#background)"/>
  <rect width="1200" height="630" fill="url(#glowA)"/>
  <rect width="1200" height="630" fill="url(#glowB)"/>
  <path d="M960 78 1130 248 960 418 790 248 960 78Z" fill="none" stroke="#7dc7ff" stroke-opacity="0.36" stroke-width="2"/>
  <path d="M1010 132 1080 202 1010 272 940 202 1010 132Z" fill="#7dc7ff" fill-opacity="0.12"/>
  <path d="M90 485c74-38 152-32 234 16 74 42 154 44 244 4" fill="none" stroke="#cf5464" stroke-opacity="0.26" stroke-width="3"/>
  <rect x="72" y="70" width="1056" height="490" rx="38" fill="url(#panel)" stroke="#ffffff" stroke-opacity="0.17"/>
  <rect x="102" y="112" width="270" height="270" rx="48" fill="#09070d" stroke="#7dc7ff" stroke-opacity="0.52" stroke-width="3"/>
  <image href="brandon-profile-photo.jpg" x="112" y="122" width="250" height="250" preserveAspectRatio="xMidYMid slice" clip-path="url(#profilePhotoClip)"/>
  <text x="420" y="165" fill="#7dc7ff" font-family="Arial, Helvetica, sans-serif" font-size="26" font-weight="700" letter-spacing="4">SOFTWARE ENGINEER</text>
  <text x="416" y="248" fill="#ffffff" font-family="Arial, Helvetica, sans-serif" font-size="76" font-weight="800" letter-spacing="-3">Brandon Temple</text>
  <text x="420" y="315" fill="#dbe7f3" font-family="Arial, Helvetica, sans-serif" font-size="30" font-weight="500">Desktop tools | Internal web apps | Reporting systems</text>
  <text x="420" y="356" fill="#dbe7f3" font-family="Arial, Helvetica, sans-serif" font-size="30" font-weight="500">Workflow automation | Practical machine learning</text>
  <g font-family="Arial, Helvetica, sans-serif" font-size="22" font-weight="700" text-anchor="middle">
    <rect x="420" y="438" width="78" height="42" rx="21" fill="#ffffff" fill-opacity="0.12" stroke="#ffffff" stroke-opacity="0.17"/>
    <text x="459" y="466" fill="#f8fafc">C#</text>
    <rect x="512" y="438" width="126" height="42" rx="21" fill="#ffffff" fill-opacity="0.12" stroke="#ffffff" stroke-opacity="0.17"/>
    <text x="575" y="466" fill="#f8fafc">Python</text>
    <rect x="652" y="438" width="118" height="42" rx="21" fill="#ffffff" fill-opacity="0.12" stroke="#ffffff" stroke-opacity="0.17"/>
    <text x="711" y="466" fill="#f8fafc">WinUI</text>
    <rect x="784" y="438" width="254" height="42" rx="21" fill="#7dc7ff" fill-opacity="0.16" stroke="#7dc7ff" stroke-opacity="0.3"/>
    <text x="911" y="466" fill="#eaf7ff">Machine Learning</text>
  </g>
  <text x="925" y="532" fill="#dbe7f3" font-family="Arial, Helvetica, sans-serif" font-size="25" font-weight="700" text-anchor="middle">brandontemple.com</text>
</svg>
